<?xml version="1.0" encoding="utf-8"?>
<!-- Generator: Adobe Illustrator 19.0.0, SVG Export Plug-In . SVG Version: 6.00 Build 0)  -->
<svg version="1.1" id="Layer_1" xmlns="http://www.w3.org/2000/svg" xmlns:xlink="http://www.w3.org/1999/xlink" x="0px" y="0px"
	 viewBox="-216 373.1 177.5 46.9" style="enable-background:new -216 373.1 177.5 46.9;" xml:space="preserve">
<style type="text/css">
	.st0{fill:#0000CC;}
	.st1{font-family:'HelveticaNeue-Bold';}
	.st2{font-size:18px;}
	.st3{font-family:'SnellRoundhand-Bold';}
</style>
<g>
	<path class="st0" d="M-173,397.4c-2-0.1-4.1-0.1-6.1-0.2v-0.1c2-0.1,4.1-0.2,6.1-0.2c2-0.1,4.1-0.1,6.1-0.2v0.8
		C-169,397.6-171,397.5-173,397.4z"/>
	<path class="st0" d="M-160.7,397.7c-2,0-4.1-0.1-6.1-0.1v-0.8c2,0,4.1-0.1,6.1-0.1s4.1-0.1,6.1-0.1v1.2
		C-156.7,397.8-158.7,397.8-160.7,397.7z"/>
	<path class="st0" d="M-154.7,397.8v-1.2h12.2v1.2H-154.7z"/>
	<path class="st0" d="M-142.5,397.8v-1.2h12.2v1.2H-142.5z"/>
	<path class="st0" d="M-130.2,397.8v-1.2h12.2v1.2H-130.2z"/>
	<path class="st0" d="M-118,397.8v-1.2h12.2v1.2H-118z"/>
	<path class="st0" d="M-105.7,397.8v-1.2h12.2v1.2H-105.7z"/>
	<path class="st0" d="M-87.4,397.7c-2,0-4.1,0.1-6.1,0.1v-1.2c2,0,4.1,0,6.1,0.1c2,0,4.1,0.1,6.1,0.1v0.8
		C-83.3,397.6-85.3,397.7-87.4,397.7z"/>
	<path class="st0" d="M-75,397.4c-2,0.1-4.1,0.1-6.1,0.2v-0.8c2,0.1,4.1,0.1,6.1,0.2s4.1,0.1,6.1,0.2v0.1
		C-71,397.3-73,397.4-75,397.4z"/>
</g>
<text transform="matrix(1 0 0 1 -229.8182 388.7142)" class="st0 st1 st2">W e i m i n </text>
<text transform="matrix(1 0 0 1 -231.792 416.1194)" class="st0 st3 st2">Universitat Autònoma de Barcelona</text>
<text transform="matrix(1 0 0 1 -73.5684 388.214)" class="st0 st1 st2">Z h o u</text>
</svg>
