<?xml version="1.0" encoding="utf-8"?>
<!-- Generator: Adobe Illustrator 19.0.0, SVG Export Plug-In . SVG Version: 6.00 Build 0)  -->
<svg version="1.1" id="Layer_1" xmlns="http://www.w3.org/2000/svg" xmlns:xlink="http://www.w3.org/1999/xlink" x="0px" y="0px"
	 viewBox="-216 373.1 177.5 46.9" style="enable-background:new -216 373.1 177.5 46.9;" xml:space="preserve">
<style type="text/css">
	.st0{fill:#0000CC;}
	.st1{font-family:'HelveticaNeue-Bold';}
	.st2{font-size:14.948px;}
	.st3{font-family:'SnellRoundhand-Bold';}
	.st4{font-size:17.113px;}
	.st5{font-size:14.9477px;}
</style>
<g>
	<path class="st0" d="M-172.4,393.9c-2-0.1-4.1-0.1-6.1-0.2v-0.1c2-0.1,4.1-0.2,6.1-0.2c2-0.1,4.1-0.1,6.1-0.2v0.8
		C-168.4,394.1-170.4,394-172.4,393.9z"/>
	<path class="st0" d="M-160.1,394.2c-2,0-4.1-0.1-6.1-0.1v-0.8c2,0,4.1-0.1,6.1-0.1s4.1-0.1,6.1-0.1v1.2
		C-156.1,394.3-158.1,394.3-160.1,394.2z"/>
	<path class="st0" d="M-154.1,394.3v-1.2h12.2v1.2H-154.1z"/>
	<path class="st0" d="M-141.9,394.3v-1.2h12.2v1.2H-141.9z"/>
	<path class="st0" d="M-129.6,394.3v-1.2h12.2v1.2H-129.6z"/>
	<path class="st0" d="M-117.4,394.3v-1.2h12.2v1.2H-117.4z"/>
	<path class="st0" d="M-105.1,394.3v-1.2h12.2v1.2H-105.1z"/>
	<path class="st0" d="M-86.8,394.2c-2,0-4.1,0.1-6.1,0.1v-1.2c2,0,4.1,0,6.1,0.1c2,0,4.1,0.1,6.1,0.1v0.8
		C-82.7,394.1-84.7,394.2-86.8,394.2z"/>
	<path class="st0" d="M-74.4,393.9c-2,0.1-4.1,0.1-6.1,0.2v-0.8c2,0.1,4.1,0.1,6.1,0.2s4.1,0.1,6.1,0.2v0.1
		C-70.4,393.8-72.4,393.9-74.4,393.9z"/>
</g>
<text transform="matrix(1.2042 0 0 1 -216.0001 384.1)" class="st0 st1 st2">W E I W I N </text>
<text transform="matrix(0.6863 0 0 1 -216.6666 418.9369)" class="st0 st3 st4">Universitat Autònoma de Barcelona</text>
<text transform="matrix(1.2042 0 0 1 -105.167 384.099)" class="st0 st1 st5">Z H O U</text>
</svg>
