<?xml version="1.0" encoding="utf-8"?>
<!-- Generator: Adobe Illustrator 16.0.0, SVG Export Plug-In . SVG Version: 6.00 Build 0)  -->
<!DOCTYPE svg PUBLIC "-//W3C//DTD SVG 1.1//EN" "http://www.w3.org/Graphics/SVG/1.1/DTD/svg11.dtd">
<svg version="1.1" id="Layer_1" xmlns="http://www.w3.org/2000/svg" xmlns:xlink="http://www.w3.org/1999/xlink" x="0px" y="0px"
	 width="177.458px" height="46.945px" viewBox="0 0 177.458 46.945" enable-background="new 0 0 177.458 46.945"
	 xml:space="preserve">
<g>
	<path fill="#0000CC" d="M0,9.736l0.981-0.153C1.597,9.486,1.847,9.255,1.847,8.87V1.906c0-0.404-0.346-0.577-0.75-0.654L0,1.097
		V0.5c0.616,0,1.847,0.077,2.886,0.077c0.731,0,1.847-0.059,2.771-0.059c2.982,0,5.599,1.637,5.599,4.864
		c0,3.079-2.443,4.93-5.137,4.93c-0.904,0-2.021-0.062-3.137-0.062c-0.827,0-2.482,0.062-2.982,0.062V9.736z M9.043,5.388
		c0-2.231-1.347-3.982-4.425-3.982c-0.25,0-0.52,0.02-0.712,0.038v7.005c0,0.865,0.866,1,1.751,1
		C8.101,9.448,9.043,7.523,9.043,5.388z"/>
	<path fill="#0000CC" d="M15.705,9.736l0.731-0.135c0.635-0.115,1.039-0.48,1.328-1.139l2.925-6.812l-0.231-0.538
		c0-0.136-0.019-0.289,0.192-0.327c0.52-0.059,0.981-0.154,1.155-0.462C21.919,0.135,21.997,0,22.15,0
		c0.173,0,0.25,0.135,0.308,0.271l3.194,8.154c0.289,0.75,0.52,1.039,1.116,1.155l0.828,0.135v0.616
		c-0.385,0-1.905-0.077-2.559-0.077c-0.635,0-2.54,0.077-3.06,0.077V9.736l0.866-0.153c0.539-0.097,0.828-0.212,0.828-0.539
		c0-0.173-0.135-0.521-0.212-0.712l-0.616-1.56h-3.309l-0.558,1.366c-0.096,0.25-0.25,0.712-0.25,0.885
		c0,0.347,0.327,0.5,0.75,0.559l0.943,0.153v0.598c-0.539,0-2.001-0.077-2.617-0.077c-0.481,0-1.616,0.077-2.097,0.077V9.736z
		 M22.458,5.907l-1.231-3.232h-0.058l-1.308,3.232H22.458z"/>
	<path fill="#0000CC" d="M32.197,2.174c-0.25-0.635-0.577-0.939-1.27-1.021l-0.635-0.062V0.5c0.654,0,1.847,0.077,2.675,0.077
		c0.866,0,2.232-0.077,3.079-0.077V1.1l-0.77,0.111c-0.423,0.062-0.962,0.173-0.962,0.601c0,0.134,0.154,0.597,0.366,1.112
		l1.828,4.603h0.039l1.963-4.853c0.077-0.212,0.269-0.75,0.269-0.962c0-0.423-0.596-0.462-0.866-0.5L37.124,1.1V0.5
		c0.404,0,2.059,0.077,2.636,0.077c0.712,0,1.462-0.077,1.905-0.077V1.1l-0.712,0.134c-0.52,0.098-0.904,0.5-1.231,1.229
		l-2.578,5.869l-0.885,2.078h-0.75L32.197,2.174z"/>
	<path fill="#0000CC" d="M45.938,9.736l1.078-0.173c0.481-0.077,0.77-0.23,0.77-0.615v-7.08c0-0.386-0.308-0.539-0.77-0.616
		L45.938,1.1V0.5c0.654,0,2.078,0.077,2.944,0.077c0.866,0,2.251-0.077,2.809-0.077V1.1l-1.039,0.15
		c-0.558,0.077-0.808,0.23-0.808,0.6v7.1c0,0.347,0.231,0.538,0.808,0.615l1.039,0.173v0.598c-0.558,0-1.982-0.077-2.848-0.077
		c-0.866,0-2.251,0.077-2.906,0.077L45.938,9.736L45.938,9.736z"/>
	<path fill="#0000CC" d="M56.985,9.736l0.981-0.153c0.616-0.097,0.866-0.327,0.866-0.712V1.906c0-0.404-0.346-0.577-0.75-0.654
		L56.985,1.1V0.5c0.616,0,1.847,0.077,2.886,0.077c0.731,0,1.847-0.059,2.771-0.059c2.982,0,5.599,1.637,5.599,4.864
		c0,3.079-2.444,4.93-5.137,4.93c-0.904,0-2.021-0.062-3.137-0.062c-0.827,0-2.482,0.062-2.982,0.062V9.736z M66.028,5.388
		c0-2.231-1.347-3.982-4.425-3.982c-0.25,0-0.52,0.02-0.712,0.038v7.005c0,0.865,0.866,1,1.751,1
		C65.085,9.448,66.028,7.523,66.028,5.388z"/>
	<path fill="#0000CC" d="M83.62,10.141c-0.366-0.077-0.577-0.1-0.923-0.139c0.077-0.462,0.134-0.75,0.134-1.189
		c0-0.462-0.077-1.039-0.154-1.617c0.077-0.076,0.212-0.134,0.327-0.134c0.27,0,0.346,0.134,0.462,0.438
		c0.423,1.25,1.289,2.04,2.886,2.04c1.328,0,1.943-0.673,1.943-1.54c0-0.885-0.673-1.328-1.559-1.612l-1.597-0.5
		c-1.328-0.427-2.232-1.178-2.232-2.562c0-1.693,1.309-3.099,3.617-3.099c0.693,0,1.482,0.173,2.001,0.271
		c0.577,0.115,0.692,0.135,1.231,0.173c-0.039,0.639-0.25,1.462-0.25,2.155c0,0.153,0.02,0.289,0.058,0.48
		c-0.097,0.059-0.192,0.112-0.327,0.112c-0.173,0-0.327-0.135-0.404-0.362c-0.173-0.5-0.385-1.214-0.442-1.428
		c-0.347-0.25-1.289-0.423-1.905-0.423c-1.135,0-1.732,0.654-1.732,1.387c0,0.849,0.616,1.191,1.424,1.464l1.52,0.479
		c1.078,0.35,2.482,0.965,2.482,2.657c0,1.79-1.386,3.349-3.887,3.349C85.506,10.544,84.428,10.294,83.62,10.141z"/>
	<path fill="#0000CC" d="M96.208,9.102c0-0.789,0.601-1.404,1.385-1.404c0.828,0,1.404,0.615,1.404,1.404
		c0,0.809-0.576,1.385-1.404,1.385C96.766,10.487,96.208,9.929,96.208,9.102z"/>
	<path fill="#0000CC" d="M114.952,2.174c-0.27-0.635-0.771-0.862-1.348-0.962L112.913,1.1V0.5c0.674,0,1.98,0.077,2.812,0.077
		c0.861,0,1.979-0.077,2.689-0.077V1.1l-0.521,0.073c-0.386,0.077-0.827,0.212-0.827,0.639c0,0.15,0.153,0.597,0.348,1.112
		l1.771,4.603h0.039l1.674-4.353l-0.401-1c-0.271-0.635-0.578-0.962-1.177-1.02l-0.401-0.059V0.5c0.521,0,1.521,0.077,2.35,0.077
		c0.863,0,2.213-0.077,3.062-0.077V1.1l-0.771,0.111c-0.426,0.077-0.943,0.173-0.943,0.601c0,0.15,0.154,0.597,0.348,1.112
		l1.771,4.603h0.021l1.849-4.694c0.075-0.211,0.271-0.848,0.271-1.059c0-0.423-0.521-0.521-0.789-0.562L125.297,1.1V0.5
		c0.404,0,2.002,0.077,2.578,0.077c0.691,0,1.539-0.077,1.98-0.077V1.1l-0.691,0.134c-0.615,0.116-0.979,0.521-1.289,1.251
		l-2.521,5.85l-0.863,2.117h-0.753l-2.271-6.004h-0.036l-1.578,3.888l-0.866,2.117H118.2L114.952,2.174z"/>
	<path fill="#0000CC" d="M134.138,5.522c0-2.751,2.231-5.292,5.292-5.292c2.925,0,5.195,2.137,5.195,5.157
		c0,2.751-2.232,5.191-5.272,5.191C136.428,10.583,134.138,8.62,134.138,5.522z M142.355,5.503c0-1.963-0.539-4.252-2.964-4.252
		c-2.387,0-2.982,2.29-2.982,4.271c0,1.939,0.713,4.061,3.002,4.061C141.702,9.582,142.355,7.351,142.355,5.503z"/>
	<path fill="#0000CC" d="M150.247,5.522c0-2.751,2.232-5.292,5.293-5.292c2.924,0,5.194,2.137,5.194,5.157
		c0,2.751-2.231,5.191-5.272,5.191C152.538,10.583,150.247,8.62,150.247,5.522z M158.463,5.503c0-1.963-0.539-4.252-2.965-4.252
		c-2.39,0-2.981,2.29-2.981,4.271c0,1.939,0.712,4.061,3.002,4.061S158.463,7.351,158.463,5.503z"/>
	<path fill="#0000CC" d="M166.202,9.736l0.981-0.153c0.614-0.097,0.864-0.327,0.864-0.712V1.906c0-0.404-0.346-0.577-0.75-0.654
		L166.202,1.1V0.5c0.611,0,1.846,0.077,2.885,0.077c0.729,0,1.85-0.059,2.771-0.059c2.98,0,5.602,1.637,5.602,4.864
		c0,3.079-2.44,4.93-5.14,4.93c-0.901,0-2.021-0.062-3.136-0.062c-0.828,0-2.48,0.062-2.98,0.062V9.736H166.202z M175.245,5.388
		c0-2.231-1.347-3.982-4.426-3.982c-0.25,0-0.52,0.02-0.712,0.038v7.005c0,0.865,0.866,1,1.751,1
		C174.302,9.448,175.245,7.523,175.245,5.388z"/>
	<path fill="#0000CC" d="M39.81,23.279c-2.033-0.062-4.074-0.133-6.124-0.215v-0.072c2.049-0.081,4.09-0.153,6.124-0.215
		c2.033-0.062,4.074-0.115,6.124-0.166v0.833C43.884,23.396,41.842,23.341,39.81,23.279z"/>
	<path fill="#0000CC" d="M52.057,23.567c-2.033-0.032-4.074-0.073-6.124-0.123v-0.833c2.049-0.049,4.09-0.09,6.124-0.121
		c2.033-0.032,4.074-0.058,6.124-0.073v1.229C56.131,23.624,54.089,23.6,52.057,23.567z"/>
	<path fill="#0000CC" d="M58.18,23.641v-1.229h12.247v1.229H58.18z"/>
	<path fill="#0000CC" d="M70.427,23.641v-1.229h12.247v1.229H70.427z"/>
	<path fill="#0000CC" d="M82.674,23.641v-1.229H94.92v1.229H82.674z"/>
	<path fill="#0000CC" d="M94.92,23.641v-1.229h12.248v1.229H94.92z"/>
	<path fill="#0000CC" d="M107.167,23.641v-1.229h12.248v1.229H107.167z"/>
	<path fill="#0000CC" d="M125.538,23.567c-2.031,0.032-4.074,0.058-6.123,0.073v-1.229c2.049,0.021,4.092,0.041,6.123,0.072
		c2.033,0.032,4.074,0.073,6.125,0.122v0.833C129.612,23.493,127.571,23.534,125.538,23.567z"/>
	<path fill="#0000CC" d="M137.786,23.279c-2.033,0.062-4.074,0.116-6.123,0.165v-0.833c2.049,0.051,4.09,0.104,6.123,0.166
		c2.032,0.062,4.073,0.134,6.123,0.215v0.072C141.859,23.146,139.818,23.218,137.786,23.279z"/>
	<path fill="#0000CC" d="M20.106,42.805l0.919-0.139c0.514-0.07,0.625-0.308,0.747-0.748l1.875-6.604h-1.421
		c-0.662,0-1.14,0.271-1.495,1.104c-0.073,0.171-0.184,0.49-0.429,0.49c-0.098,0-0.257-0.051-0.306-0.123
		c0.232-0.638,0.49-1.435,0.551-2.146c0.662,0,2.438,0.062,3.406,0.062h0.748c0.968,0,2.598-0.021,3.578-0.062
		c-0.208,0.523-0.502,1.472-0.551,2.189c-0.037,0.05-0.147,0.074-0.208,0.074c-0.208,0-0.233-0.282-0.245-0.503
		c-0.061-0.969-0.245-1.091-1.176-1.091h-1.09l-1.679,6.01c-0.049,0.172-0.27,0.854-0.27,1.018c0,0.245,0.257,0.318,0.551,0.354
		l0.895,0.106l-0.085,0.396c-0.429,0-1.348-0.049-2.132-0.049c-0.698,0-1.74,0.049-2.279,0.049L20.106,42.805z"/>
	<path fill="#0000CC" d="M30.615,42.646c0-0.232,0.172-0.648,0.307-0.943l1.09-2.304c0.196-0.433,0.392-0.834,0.392-1.058
		c0-0.155-0.123-0.327-0.368-0.327c-0.404,0-1.004,0.572-1.568,1.262c-0.735,0.896-1.409,1.981-1.617,2.487l-0.576,1.385
		c-0.171,0.062-0.331,0.073-0.527,0.073c-0.318,0-0.6-0.225-0.649-0.384l0.576-1.249c0.429-0.94,0.895-1.998,0.895-1.998
		l2.083-4.896l-1.079,0.062l-0.085-0.363c0.98-0.208,1.973-0.453,2.646-0.715l0.159,0.103l-2.009,4.337l-1.127,1.912l0.123,0.073
		c1.042-1.521,2.218-3.075,3.553-3.075c0.564,0,0.882,0.38,0.882,0.784c0,0.38-0.392,1.226-0.613,1.666l-0.747,1.556
		c-0.098,0.233-0.404,0.834-0.404,1.055c0,0.138,0.061,0.225,0.208,0.225c0.417,0,0.956-0.856,1.152-1.18l0.343,0.208
		c-0.735,1.323-1.52,1.977-2.328,1.977C30.897,43.307,30.615,43,30.615,42.646z"/>
	<path fill="#0000CC" d="M34.557,41.604c0-1.891,1.397-4.582,3.664-4.582c0.551,0,1.09,0.257,1.09,0.869
		c0,1.405-2.095,2.218-3.479,2.414c-0.049,0.241-0.086,0.523-0.086,0.771c0,0.771,0.307,1.272,0.907,1.272
		c0.846,0,1.421-0.771,1.789-1.388l0.343,0.195c-0.502,1.188-1.396,2.182-2.671,2.182C35.121,43.344,34.557,42.62,34.557,41.604z
		 M38.123,38.198c0-0.381-0.282-0.526-0.465-0.526c-0.723,0-1.446,1.021-1.715,2.119C36.946,39.619,38.123,39.129,38.123,38.198z"/>
	<path fill="#0000CC" d="M43.779,41.272l-0.318-0.135c0.135-0.281,0.404-1.029,0.478-1.286c0,0,0.968-3.528,1.09-3.944
		c0.012-0.073,0.073-0.271,0.073-0.355c0-0.229-0.159-0.327-0.515-0.38l-0.906-0.122l0.085-0.393c0.392,0,1.458,0.049,2.206,0.049
		c0.71,0,1.409-0.049,2.144-0.049l-0.098,0.403l-0.735,0.062c-0.576,0.062-0.748,0.257-0.907,0.819
		c-0.895,3.247-1.299,4.689-1.299,4.729c0.233,0.833,0.772,1.531,1.936,1.531c1.066,0,1.973-0.675,2.389-1.888l0.968-3.541
		c0.135-0.503,0.232-0.857,0.232-1.114c0-0.331-0.27-0.453-0.625-0.503l-0.809-0.109l0.11-0.394c0.637,0,1.323,0.05,1.948,0.05
		c0.539,0,1.188-0.036,1.74-0.05l-0.086,0.404l-0.527,0.049c-0.588,0.074-0.907,0.354-1.066,0.979l-1.05,3.812
		c-0.147,0.523-0.172,1.188-0.172,1.458l-0.318,0.05c-0.649,1.226-1.838,1.961-3.051,1.961
		C45.078,43.368,44.11,42.535,43.779,41.272z"/>
	<path fill="#0000CC" d="M55.317,42.646c0-0.258,0.172-0.648,0.307-0.943l1.078-2.304c0.196-0.433,0.404-0.834,0.404-1.058
		c0-0.192-0.11-0.327-0.38-0.327c-0.674,0-2.156,1.858-2.855,3.137c-0.22,0.404-0.392,0.784-0.588,1.25
		c-0.11,0.245-0.221,0.552-0.294,0.73c-0.232,0.054-0.343,0.062-0.527,0.062c-0.294,0-0.625-0.196-0.649-0.43
		c0.307-0.678,0.821-1.703,1.066-2.229c0.196-0.431,0.845-1.803,0.845-2.193c0-0.135-0.061-0.241-0.27-0.241
		c-0.368,0-0.882,0.78-1.127,1.164l-0.355-0.209c0.563-0.972,1.446-2.033,2.45-2.033c0.38,0,0.552,0.191,0.552,0.479
		c0,0.281-0.846,1.924-1.103,2.516l0.123,0.069c1.066-1.521,2.193-3.062,3.541-3.062c0.613,0,0.87,0.393,0.87,0.816
		c0,0.355-0.38,1.188-0.601,1.646l-0.735,1.532c-0.11,0.229-0.429,0.847-0.429,1.062c0,0.135,0.086,0.225,0.221,0.225
		c0.417,0,0.956-0.87,1.152-1.18l0.343,0.208c-0.735,1.323-1.52,1.977-2.328,1.977C55.624,43.307,55.317,43.025,55.317,42.646z"/>
	<path fill="#0000CC" d="M59.173,42.633c0-0.221,0.319-0.902,0.625-1.479l0.735-1.422c0.11-0.208,0.662-1.286,0.662-1.458
		c0-0.122-0.049-0.224-0.221-0.224c-0.429,0-1.029,0.857-1.262,1.217l-0.331-0.209c0.576-0.955,1.409-2.033,2.573-2.033
		c0.368,0,0.674,0.221,0.674,0.552c0,0.208-0.257,0.734-0.539,1.312l-1.115,2.202c-0.196,0.384-0.429,0.821-0.429,0.956
		c0,0.159,0.061,0.261,0.245,0.261c0.38,0,0.931-0.82,1.176-1.217l0.355,0.196c-0.527,0.942-1.421,2.021-2.39,2.021
		C59.492,43.307,59.173,43.074,59.173,42.633z M62.224,35.158c0-0.539,0.429-1.005,0.931-1.005c0.465,0,0.686,0.307,0.686,0.698
		c0,0.522-0.417,1.041-0.943,1.041C62.481,35.894,62.224,35.575,62.224,35.158z"/>
	<path fill="#0000CC" d="M64.587,41.836c0-0.608,0.417-1.262,0.882-1.896c0.563-0.784,1.213-1.352,1.642-1.977l-0.123-0.07
		c-0.49,0.438-0.894,0.523-1.237,0.523c-0.613,0-0.98-0.343-1.287-0.343c-0.171,0-0.539,0.403-0.539,0.637
		c0,0.245,0.637,0.159,0.637,0.433c0,0.308-0.343,0.81-0.748,0.81c-0.405,0-0.674-0.281-0.674-0.638
		c0-0.526,1.262-2.229,1.838-2.229c0.135,0,0.27,0.049,0.454,0.109c0.232,0.062,0.551,0.185,0.882,0.185
		c0.588,0,1.029-0.085,1.471-0.38l0.331,0.245c-0.748,1.078-2.291,2.817-2.291,4.056c0,0.678,0.392,1.095,1.004,1.095
		c1.213,0,2.414-2.156,2.414-3.227c0-0.278-0.16-0.488-0.294-0.661c-0.159-0.192-0.343-0.417-0.343-0.797
		c0-0.354,0.27-0.687,0.662-0.687c0.49,0,0.845,0.438,0.845,1.055c0,2.155-1.875,5.256-4.043,5.256
		C65.383,43.331,64.587,42.939,64.587,41.836z"/>
	<path fill="#0000CC" d="M70.562,41.604c0-1.891,1.397-4.582,3.664-4.582c0.551,0,1.09,0.257,1.09,0.869
		c0,1.405-2.095,2.218-3.479,2.414c-0.049,0.241-0.086,0.523-0.086,0.771c0,0.771,0.307,1.272,0.907,1.272
		c0.846,0,1.421-0.771,1.789-1.388l0.343,0.195c-0.502,1.188-1.396,2.182-2.671,2.182C71.126,43.344,70.562,42.62,70.562,41.604z
		 M74.128,38.198c0-0.381-0.282-0.526-0.465-0.526c-0.723,0-1.446,1.021-1.715,2.119C72.952,39.619,74.128,39.129,74.128,38.198z"/>
	<path fill="#0000CC" d="M75.853,42.805c0.233-0.593,0.49-1.095,0.71-1.646c0.208-0.489,0.919-2.268,0.919-2.793
		c0-0.159-0.086-0.271-0.27-0.271c-0.367,0-0.857,0.725-1.139,1.162l-0.343-0.21c0.441-0.771,1.409-2.029,2.377-2.029
		c0.38,0,0.551,0.221,0.551,0.465c0,0.316-0.196,0.847-0.429,1.435L77.617,40.4l0.135,0.051c0.294-0.553,0.588-1.128,0.98-1.803
		c0.662-1.104,1.25-1.629,1.789-1.629c0.441,0,0.662,0.307,0.662,0.674c0,0.438-0.38,1.041-0.748,1.041
		c-0.27,0-0.429-0.403-0.625-0.403c-0.245,0-0.649,0.552-1.042,1.177c-0.588,0.919-1.164,2.146-1.274,2.43
		c0,0-0.38,0.939-0.478,1.196c-0.196,0.062-0.331,0.09-0.502,0.09C76.135,43.221,75.89,42.976,75.853,42.805z"/>
	<path fill="#0000CC" d="M80.482,42.204c0-0.438,0.27-0.724,0.637-0.724c0.38,0,0.576,0.277,0.576,0.601
		c0,0.44,0.245,0.748,0.662,0.748c0.49,0,0.784-0.417,0.784-0.896c0-0.47-0.245-0.87-0.54-1.336
		c-0.171-0.271-0.367-0.525-0.527-0.784c-0.184-0.31-0.294-0.588-0.294-0.935c0-0.896,1.029-1.851,2.242-1.851
		c0.613,0,1.226,0.281,1.226,0.846c0,0.343-0.233,0.698-0.625,0.698c-0.294,0-0.404-0.208-0.49-0.467
		c-0.098-0.294-0.294-0.502-0.625-0.502c-0.429,0-0.698,0.438-0.698,0.81c0,0.354,0.27,0.711,0.563,1.164
		c0.392,0.604,0.821,1.286,0.821,1.898c0,1.004-0.944,1.858-2.145,1.858C81.144,43.344,80.482,42.854,80.482,42.204z"/>
	<path fill="#0000CC" d="M85.417,42.633c0-0.221,0.319-0.902,0.625-1.479l0.735-1.422c0.11-0.208,0.662-1.286,0.662-1.458
		c0-0.122-0.049-0.224-0.221-0.224c-0.429,0-1.029,0.857-1.262,1.217l-0.331-0.209c0.576-0.955,1.409-2.033,2.573-2.033
		c0.368,0,0.674,0.221,0.674,0.552c0,0.208-0.257,0.734-0.539,1.312l-1.115,2.202c-0.196,0.384-0.429,0.821-0.429,0.956
		c0,0.159,0.061,0.261,0.245,0.261c0.38,0,0.931-0.82,1.176-1.217l0.355,0.196c-0.527,0.942-1.421,2.021-2.39,2.021
		C85.736,43.307,85.417,43.074,85.417,42.633z M88.469,35.158c0-0.539,0.429-1.005,0.931-1.005c0.466,0,0.687,0.307,0.687,0.698
		c0,0.522-0.418,1.041-0.939,1.041C88.726,35.894,88.469,35.575,88.469,35.158z"/>
	<path fill="#0000CC" d="M89.422,42.608c0-0.281,0.318-1.114,0.466-1.471l1.274-3.124H89.95l0.172-0.507l1.262-0.049l0.563-1.409
		c0.539-0.085,0.882-0.608,1.435-0.6l-0.834,1.983l0.396-0.016c0.454-0.013,0.979-0.05,1.438-0.086l-0.31,0.674h-1.765l-1.042,2.573
		c-0.11,0.271-0.519,1.249-0.519,1.471c0,0.188,0.102,0.232,0.207,0.232c0.728,0,1.496-0.979,1.938-1.558l0.343,0.222
		c-0.688,1.151-1.773,2.354-3.023,2.354C89.766,43.307,89.422,43.062,89.422,42.608z"/>
	<path fill="#0000CC" d="M91.674,45.696c0-0.515,0.354-0.919,0.883-0.919c0.318,0,0.648,0.229,0.648,0.602
		c0,0.367-0.318,0.525-0.318,0.698c0,0.146,0.109,0.271,0.38,0.271c1.054,0,2.058-1.409,2.537-2.523
		c0.403-0.761,0.489-1.789,0.489-2.513c0-0.919-0.232-3.284-1.127-3.284c-0.281,0-0.271,0.354-0.271,0.553
		c0,0.271,0.146,0.747,0.232,1.021l-0.433,0.123c-0.135-0.318-0.307-0.801-0.307-1.266c0-0.688,0.271-1.409,1.062-1.409
		c0.994,0,1.438,0.919,1.646,1.897c0.135,0.639,0.188,1.3,0.188,1.631c0,0.562-0.089,1.229-0.197,1.667l0.074,0.012
		c0.258-0.45,0.572-0.931,0.817-1.356c0.315-0.539,0.784-1.323,0.784-1.812c0-0.314-0.139-0.453-0.317-0.661
		c-0.157-0.185-0.315-0.354-0.315-0.659c0-0.415,0.307-0.711,0.675-0.711c0.479,0,0.856,0.382,0.856,0.979
		c0,0.761-0.231,1.436-0.688,2.27c-0.416,0.771-0.933,1.493-1.445,2.241c-0.294,0.403-0.856,1.104-1.114,1.56
		c-0.761,1.319-1.58,2.806-3.332,2.806C92.325,46.896,91.674,46.48,91.674,45.696z"/>
	<path fill="#0000CC" d="M102.918,41.542c0-1.937,1.648-4.509,3.504-4.509c1.201,0,1.688,0.856,1.688,1.812
		c0,1.928-1.593,4.497-3.504,4.497C103.555,43.344,102.918,42.51,102.918,41.542z M106.974,38.552c0-0.449-0.062-0.939-0.515-0.939
		c-1.238,0-2.402,2.807-2.402,4.228c0,0.396,0.074,0.907,0.613,0.907C105.969,42.743,106.974,39.533,106.974,38.552z"/>
	<path fill="#0000CC" d="M105.684,45.893c0-0.348,0.184-0.85,0.771-0.85c0.438,0,0.625,0.271,0.625,0.539
		c0,0.294-0.172,0.38-0.172,0.519c0,0.135,0.098,0.257,0.314,0.257c0.896,0,1.441-2.069,1.789-3.21l1.492-5.122h-1.112l0.146-0.551
		l1.143-0.023l0.271-0.847c0.604-1.898,1.631-3.124,3.383-3.124c0.896,0,1.617,0.465,1.617,1.263c0,0.429-0.309,0.819-0.748,0.819
		c-0.367,0-0.646-0.231-0.646-0.588c0-0.281,0.193-0.49,0.193-0.641c0-0.192-0.244-0.368-0.609-0.368
		c-0.956,0-1.424,0.735-1.805,1.948l-0.479,1.521h0.245c0.367,0,0.818-0.023,1.148-0.062l-0.278,0.648h-1.287l-1.386,4.437
		c-0.602,1.898-1.436,4.438-3.49,4.438C106.15,46.896,105.684,46.468,105.684,45.893z"/>
	<path fill="#0000CC" d="M116.624,39.741c0-2.771,2.082-5.232,5.108-5.232c0.933,0,1.604,0.11,2.476,0.262
		c0.381,0.069,0.688,0.099,0.943,0.135c-0.184,0.688-0.502,1.544-0.648,2.256c-0.049,0.035-0.135,0.072-0.229,0.072
		c-0.086,0-0.191-0.062-0.245-0.123v-1.421c-0.417-0.262-1.312-0.519-2.274-0.519c-2.354,0-3.651,2.146-3.651,4.423
		c0,1.703,0.76,3.076,2.843,3.076c0.711,0,1.323-0.221,1.631-0.354c0.293-0.44,0.832-1.385,1.139-1.861
		c0.174,0,0.396,0.062,0.416,0.194c-0.277,0.725-0.574,1.479-0.78,2.365c-0.661,0.118-1.581,0.343-2.658,0.343
		C118.179,43.355,116.624,41.983,116.624,39.741z"/>
	<path fill="#0000CC" d="M128.271,42.646c0-0.232,0.171-0.648,0.306-0.943l1.092-2.304c0.195-0.433,0.396-0.834,0.396-1.058
		c0-0.155-0.123-0.327-0.368-0.327c-0.399,0-1.005,0.572-1.563,1.262c-0.735,0.896-1.41,1.981-1.617,2.487l-0.576,1.385
		c-0.171,0.062-0.331,0.073-0.525,0.073c-0.319,0-0.602-0.225-0.647-0.384l0.573-1.249c0.434-0.94,0.896-1.998,0.896-1.998
		l2.083-4.896l-1.077,0.062l-0.087-0.363c0.979-0.208,1.976-0.453,2.646-0.715l0.16,0.103l-2.01,4.337l-1.127,1.912l0.121,0.073
		c1.042-1.521,2.219-3.075,3.555-3.075c0.562,0,0.883,0.38,0.883,0.784c0,0.38-0.394,1.226-0.609,1.666l-0.748,1.556
		c-0.102,0.233-0.402,0.834-0.402,1.055c0,0.138,0.062,0.225,0.209,0.225c0.416,0,0.955-0.856,1.149-1.18l0.343,0.208
		c-0.73,1.323-1.521,1.977-2.326,1.977C128.552,43.307,128.271,43,128.271,42.646z"/>
	<path fill="#0000CC" d="M132.125,42.633c0-0.221,0.314-0.902,0.625-1.479l0.731-1.422c0.108-0.208,0.661-1.286,0.661-1.458
		c0-0.122-0.049-0.224-0.223-0.224c-0.432,0-1.026,0.857-1.264,1.217l-0.33-0.209c0.574-0.955,1.408-2.033,2.571-2.033
		c0.368,0,0.675,0.221,0.675,0.552c0,0.208-0.258,0.734-0.539,1.312l-1.113,2.202c-0.193,0.384-0.432,0.821-0.432,0.956
		c0,0.159,0.062,0.261,0.246,0.261c0.379,0,0.932-0.82,1.176-1.217l0.355,0.196c-0.527,0.942-1.422,2.021-2.391,2.021
		C132.445,43.307,132.125,43.074,132.125,42.633z M135.177,35.158c0-0.539,0.43-1.005,0.932-1.005c0.466,0,0.687,0.307,0.687,0.698
		c0,0.522-0.416,1.041-0.939,1.041C135.435,35.894,135.177,35.575,135.177,35.158z"/>
	<path fill="#0000CC" d="M136.107,41.481c0-1.653,1.336-4.447,3.627-4.447c0.687,0,1.164,0.317,1.164,0.896
		c0,0.354-0.208,0.902-0.724,0.902c-0.318,0-0.625-0.191-0.625-0.522c0-0.317,0.16-0.433,0.16-0.526
		c0-0.099-0.104-0.172-0.332-0.172c-0.551,0-1.021,0.502-1.322,0.979c-0.453,0.71-0.711,1.703-0.711,2.413
		c0,0.764,0.281,1.336,0.955,1.336c0.675,0,1.227-0.731,1.594-1.385l0.355,0.208c-0.576,1.287-1.422,2.182-2.549,2.182
		C136.756,43.344,136.107,42.694,136.107,41.481z"/>
	<path fill="#0000CC" d="M141.03,42.326c0-1.739,1.899-5.207,3.945-5.207c0.49,0,0.968,0.109,1.396,0.331l0.694-0.527l0.245,0.086
		c-0.438,0.85-0.834,1.825-1.396,3.178c-0.246,0.601-0.603,1.613-0.603,1.821c0,0.176,0.073,0.245,0.244,0.245
		c0.368,0,0.771-0.608,1.128-1.147l0.345,0.208c-0.538,0.979-1.372,1.997-2.22,1.997c-0.354,0-0.661-0.176-0.661-0.604
		c0-0.222,0.146-0.575,0.345-1.005c0.157-0.33,0.344-0.698,0.452-0.943l-0.12-0.061c-1.143,1.896-1.961,2.657-2.846,2.657
		C141.398,43.355,141.03,42.964,141.03,42.326z M145.379,38.834l0.244-0.489c-0.31-0.229-0.972-0.486-1.229-0.486
		c-0.711,0-1.521,1.629-1.859,2.777c-0.139,0.433-0.231,0.857-0.231,1.144c0,0.245,0.049,0.516,0.317,0.516
		C143.504,42.29,144.792,40.06,145.379,38.834z"/>
	<path fill="#0000CC" d="M145.954,45.378c0-0.854,0.955-1.65,1.861-1.998v-0.021c-0.355-0.194-0.602-0.502-0.602-0.935
		c0-0.748,0.939-1.348,1.654-1.593c-0.207-0.258-0.433-0.674-0.433-1.104c0-1.481,1.144-2.694,2.483-2.694
		c0.33,0,0.678,0.086,0.943,0.258c0.305-0.562,0.795-1.079,1.434-1.079c0.347,0,0.697,0.123,0.746,0.434
		c-0.033,0.294-0.256,0.601-0.537,0.674c-0.186-0.073-0.401-0.294-0.658-0.294c-0.271,0-0.527,0.314-0.662,0.539
		c0.245,0.271,0.434,0.724,0.434,1.176c0,1.409-1.115,2.722-2.488,2.722c-0.416,0-0.771-0.172-0.979-0.308
		c-0.354,0.159-0.869,0.467-0.869,0.847c0,0.317,0.171,0.416,0.589,0.525l1.653,0.43c0.979,0.245,1.593,0.748,1.593,1.495
		c0,1.371-1.789,2.5-3.871,2.5C147.141,46.946,145.954,46.443,145.954,45.378z M151.062,44.875c0-0.688-0.772-0.87-1.287-0.979
		l-1.53-0.367c-0.785,0.404-1.214,0.969-1.214,1.508c0,0.896,0.847,1.263,1.789,1.263C150.043,46.297,151.062,45.672,151.062,44.875
		z M151.54,38.455c0-0.589-0.281-0.907-0.662-0.907c-0.918,0-1.354,1.654-1.354,2.479c0,0.354,0.122,0.906,0.604,0.906
		C151.062,40.93,151.54,39.324,151.54,38.455z"/>
	<path fill="#0000CC" d="M153.413,41.542c0-1.937,1.652-4.509,3.504-4.509c1.201,0,1.689,0.856,1.689,1.812
		c0,1.928-1.593,4.497-3.504,4.497C154.047,43.344,153.413,42.51,153.413,41.542z M157.467,38.552c0-0.449-0.062-0.939-0.516-0.939
		c-1.238,0-2.402,2.807-2.402,4.228c0,0.396,0.074,0.907,0.613,0.907C156.461,42.743,157.467,39.533,157.467,38.552z"/>
</g>
</svg>
