<?xml version="1.0" encoding="utf-8"?>
<!-- Generator: Adobe Illustrator 19.0.0, SVG Export Plug-In . SVG Version: 6.00 Build 0)  -->
<svg version="1.1" id="Layer_1" xmlns="http://www.w3.org/2000/svg" xmlns:xlink="http://www.w3.org/1999/xlink" x="0px" y="0px"
	 viewBox="-216 373.1 177.5 46.9" style="enable-background:new -216 373.1 177.5 46.9;" xml:space="preserve">
<style type="text/css">
	.st0{fill:#0000CC;}
	.st1{font-family:'HelveticaNeue-Bold';}
	.st2{font-size:14.948px;}
	.st3{font-family:'SnellRoundhand-Bold';}
	.st4{font-size:17.113px;}
	.st5{font-size:18px;}
</style>
<g>
	<path class="st0" d="M-175.6,396.8c-2-0.1-4.1-0.1-6.1-0.2v-0.1c2-0.1,4.1-0.2,6.1-0.2c2-0.1,4.1-0.1,6.1-0.2v0.8
		C-171.6,397-173.6,396.9-175.6,396.8z"/>
	<path class="st0" d="M-163.3,397.1c-2,0-4.1-0.1-6.1-0.1v-0.8c2,0,4.1-0.1,6.1-0.1s4.1-0.1,6.1-0.1v1.2
		C-159.3,397.2-161.3,397.2-163.3,397.1z"/>
	<path class="st0" d="M-157.3,397.2V396h12.2v1.2H-157.3z"/>
	<path class="st0" d="M-145.1,397.2V396h12.2v1.2H-145.1z"/>
	<path class="st0" d="M-132.8,397.2V396h12.2v1.2H-132.8z"/>
	<path class="st0" d="M-120.6,397.2V396h12.2v1.2H-120.6z"/>
	<path class="st0" d="M-108.3,397.2V396h12.2v1.2H-108.3z"/>
	<path class="st0" d="M-90,397.1c-2,0-4.1,0.1-6.1,0.1V396c2,0,4.1,0,6.1,0.1c2,0,4.1,0.1,6.1,0.1v0.8
		C-85.9,397-87.9,397.1-90,397.1z"/>
	<path class="st0" d="M-77.6,396.8c-2,0.1-4.1,0.1-6.1,0.2v-0.8c2,0.1,4.1,0.1,6.1,0.2s4.1,0.1,6.1,0.2v0.1
		C-73.6,396.7-75.6,396.8-77.6,396.8z"/>
</g>
<text transform="matrix(1.2042 0 0 1 -216.3894 384.5163)" class="st0 st1 st2">W e i m i n </text>
<text transform="matrix(0.6863 0 0 1 -216.3894 418.8373)" class="st0 st3 st4">Universitat Autònoma de Barcelona</text>
<text transform="matrix(1 0 0 1 -97.5916 386.2666)" class="st0 st1 st5">Z h o u</text>
</svg>
